<svg width="24" height="24" viewBox="0 0 24 24" fill="none" xmlns="http://www.w3.org/2000/svg">
  <path d="M18.5303 11.4697C18.8232 11.7626 18.8232 12.2374 18.5303 12.5303L16.5303 14.5303C16.2374 14.8232 15.7626 14.8232 15.4697 14.5303C15.1768 14.2374 15.1768 13.7626 15.4697 13.4697L16.1893 12.75H9C8.58579 12.75 8.25 12.4142 8.25 12C8.25 11.5858 8.58579 11.25 9 11.25H16.1893L15.4697 10.5303C15.1768 10.2374 15.1768 9.76256 15.4697 9.46967C15.7626 9.17678 16.2374 9.17678 16.5303 9.46967L18.5303 11.4697Z" fill="#EFEFEF"/>
  <path fill-rule="evenodd" clip-rule="evenodd" d="M10.0547 1.25H8.9449C7.57733 1.24998 6.47502 1.24996 5.60801 1.36652C4.70791 1.48754 3.95 1.74643 3.34808 2.34835C2.74616 2.95027 2.48727 3.70814 2.36625 4.60825C2.24971 5.47522 2.24978 6.57754 2.24978 7.94513V16.0549C2.24978 17.4225 2.24971 18.5248 2.36625 19.3918C2.48727 20.2919 2.74616 21.0497 3.34808 21.6517C3.95 22.2536 4.70791 22.5125 5.60801 22.6335C6.47502 22.75 7.57733 22.75 8.9449 22.75H10.0547C11.4222 22.75 12.5246 22.75 13.3915 22.6335C14.2916 22.5125 15.0495 22.2536 15.6514 21.6517C16.0504 21.2527 16.2993 20.7844 16.4569 20.2498C17.4083 20.2486 18.2009 20.2381 18.8431 20.1518C19.6071 20.0491 20.2694 19.8268 20.7981 19.2981C21.3268 18.7694 21.5491 18.1071 21.6518 17.3431C21.75 16.6123 21.75 15.6865 21.75 14.5537V9.44631C21.75 8.31349 21.75 7.38774 21.6518 6.65689C21.5491 5.89294 21.3268 5.2306 20.7981 4.7019C20.2694 4.17321 19.6071 3.95093 18.8431 3.84822C18.2009 3.76188 17.4083 3.75142 16.4569 3.75017C16.2993 3.21562 16.0504 2.74729 15.6514 2.34835C15.0495 1.74643 14.2916 1.48754 13.3915 1.36652C12.5246 1.24996 11.4222 1.24998 10.0547 1.25ZM16.748 17.0042C16.7444 17.6487 16.7338 18.2293 16.6971 18.7491C17.5316 18.7459 18.152 18.7312 18.6432 18.6652C19.2409 18.5848 19.5339 18.441 19.7374 18.2374C19.9409 18.0339 20.0848 17.7409 20.1652 17.1432C20.2484 16.5241 20.25 15.6997 20.25 14.5V9.5C20.25 8.30029 20.2484 7.47595 20.1652 6.85676C20.0848 6.25914 19.9409 5.9661 19.7374 5.76256C19.5339 5.55902 19.2409 5.41519 18.6432 5.33484C18.152 5.2688 17.5316 5.25415 16.6971 5.25091C16.7338 5.77073 16.7444 6.35129 16.748 6.99583C16.7503 7.41003 16.4164 7.74768 16.0022 7.74999C15.588 7.7523 15.2503 7.41838 15.2481 7.00418C15.242 5.91068 15.2136 5.1356 15.1055 4.54735C15.0014 3.98054 14.8343 3.65246 14.5908 3.40901C14.314 3.13225 13.9254 2.9518 13.1917 2.85315C12.4363 2.75159 11.4352 2.75 10 2.75H9C7.56457 2.75 6.56349 2.75159 5.80811 2.85315C5.07434 2.9518 4.68576 3.13225 4.40899 3.40901C4.13223 3.68577 3.95178 4.07435 3.85314 4.80812C3.75158 5.56347 3.75 6.56459 3.75 8V16C3.75 17.4354 3.75158 18.4365 3.85314 19.1919C3.95178 19.9257 4.13223 20.3142 4.40899 20.591C4.68576 20.8678 5.07434 21.0482 5.80811 21.1469C6.56349 21.2484 7.56457 21.25 9 21.25H10C11.4352 21.25 12.4363 21.2484 13.1917 21.1469C13.9254 21.0482 14.314 20.8678 14.5908 20.591C14.8343 20.3475 15.0014 20.0195 15.1055 19.4527C15.2136 18.8644 15.242 18.0893 15.2481 16.9958C15.2503 16.5816 15.588 16.2477 16.0022 16.25C16.4164 16.2523 16.7503 16.59 16.748 17.0042Z" fill="#EFEFEF"/>
</svg>
